<?xml version="1.0" encoding="UTF-8"?>
<svg width="91px" height="16px" viewBox="0 0 91 16" version="1.1" xmlns="http://www.w3.org/2000/svg" xmlns:xlink="http://www.w3.org/1999/xlink">
    <!-- Generator: Sketch 53.2 (72643) - https://sketchapp.com -->
    <title>SPENNY.</title>
    <desc>Created with Sketch.</desc>
    <g id="Page-1" stroke="none" stroke-width="1" fill="none" fill-rule="evenodd">
        <g id="Desktop-HD" transform="translate(-131.000000, -32.000000)" fill="#FFFFFF" fill-rule="nonzero">
            <path d="M136.053465,45.0567082 C136.532676,45.0567082 136.928381,45.0161369 137.240594,44.9349931 C137.552807,44.8538493 137.803299,44.7432003 137.992079,44.6030429 C138.180859,44.4628854 138.311551,44.296912 138.384158,44.1051176 C138.456766,43.9133232 138.493069,43.6994018 138.493069,43.4633472 C138.493069,42.961731 138.260728,42.5449533 137.79604,42.2130014 C137.331351,41.8810495 136.532679,41.5232845 135.4,41.1396957 C134.906268,40.9626547 134.412544,40.7597983 133.918812,40.5311203 C133.42508,40.3024424 132.98218,40.0147551 132.590099,39.6680498 C132.198018,39.3213445 131.878549,38.9008785 131.631683,38.406639 C131.384817,37.9123996 131.261386,37.3112069 131.261386,36.6030429 C131.261386,35.8948789 131.392078,35.2568032 131.653465,34.6887967 C131.914853,34.1207902 132.285146,33.637623 132.764356,33.2392808 C133.243567,32.8409385 133.824419,32.5348097 134.506931,32.3208852 C135.189442,32.1069607 135.959072,32 136.815842,32 C137.832348,32 138.710887,32.110649 139.451485,32.3319502 C140.192083,32.5532515 140.801978,32.7966792 141.281188,33.0622407 L140.30099,35.7842324 C139.879866,35.5629311 139.411554,35.3674513 138.89604,35.197787 C138.380525,35.0281227 137.75974,34.9432918 137.033663,34.9432918 C136.220458,34.9432918 135.635975,35.0576291 135.280198,35.2863071 C134.924421,35.514985 134.746535,35.8653734 134.746535,36.3374827 C134.746535,36.6177976 134.811881,36.8538487 134.942574,37.0456432 C135.073268,37.2374376 135.258415,37.4107876 135.49802,37.5656985 C135.737625,37.7206093 136.01353,37.8607647 136.325743,37.9861687 C136.637955,38.1115728 136.982836,38.2406632 137.360396,38.373444 C138.144558,38.6685123 138.82706,38.9598879 139.407921,39.2475795 C139.988782,39.5352711 140.471615,39.8709063 140.856436,40.2544952 C141.241256,40.638084 141.528052,41.0880564 141.716832,41.604426 C141.905612,42.1207956 142,42.7478064 142,43.4854772 C142,44.9165586 141.506276,46.0267365 140.518812,46.8160443 C139.531348,47.605352 138.042914,48 136.053465,48 C135.385475,48 134.782841,47.9594287 134.245545,47.8782849 C133.708248,47.7971411 133.232675,47.6975571 132.818812,47.5795297 C132.404948,47.4615024 132.049176,47.3361002 131.751485,47.2033195 C131.453794,47.0705388 131.203301,46.9451366 131,46.8271093 L131.958416,44.0829876 C132.408583,44.3337956 132.964023,44.5587819 133.624752,44.757953 C134.285482,44.9571241 135.095045,45.0567082 136.053465,45.0567082 Z M149.718336,32 C152.062394,32 153.861998,32.4146416 155.117202,33.2439372 C156.372407,34.0732329 157,35.4312792 157,37.318117 C157,39.2201712 156.364846,40.5934337 155.094518,41.4379458 C153.82419,42.2824579 152.009464,42.7047076 149.650284,42.7047076 L148.538752,42.7047076 L148.538752,48 L145,48 L145,32.4108417 C145.77127,32.2586773 146.587897,32.1521639 147.449905,32.0912981 C148.311914,32.0304324 149.06805,32 149.718336,32 Z M149.462264,35 C149.194967,35 148.931605,35.0069851 148.67217,35.0209556 C148.412735,35.0349261 148.590169,35.0488963 148.401489,35.0628668 L148.401489,39.5 L149.139893,39.5 C150.413484,39.5 151.388362,39.1003155 152.033019,38.792965 C152.677676,38.4856146 153,37.9128337 153,37.0746052 C153,36.6694614 152.917454,36.334175 152.752358,36.068736 C152.587263,35.803297 152.351417,35.5902504 152.044811,35.42959 C151.738206,35.2689295 151.364782,35.1571674 150.924528,35.0943002 C150.484275,35.0314331 149.996858,35 149.462264,35 Z M159,48 L159,33 L169.484725,33 L169.484725,35.8354978 L162.494908,35.8354978 L162.494908,38.7792208 L168.700611,38.7792208 L168.700611,41.5497835 L162.494908,41.5497835 L162.494908,45.1645022 L170,45.1645022 L170,48 L159,48 Z M183.142617,48 C182.16834,46.2828197 181.1141,44.58731 179.979866,42.9134199 C178.845632,41.2395299 177.638709,39.6594591 176.35906,38.1731602 L176.35906,48 L173,48 L173,33 L175.770134,33 C176.250002,33.4761929 176.780758,34.0606026 177.362416,34.7532468 C177.944074,35.4458909 178.53663,36.1854218 179.140101,36.9718615 C179.743571,37.7583012 180.343397,38.5735889 180.939597,39.4177489 C181.535797,40.261909 182.095635,41.0735892 182.619128,41.8528139 L182.619128,33 L186,33 L186,48 L183.142617,48 Z M200.142617,48 C199.16834,46.2828197 198.1141,44.58731 196.979866,42.9134199 C195.845632,41.2395299 194.638709,39.6594591 193.35906,38.1731602 L193.35906,48 L190,48 L190,33 L192.770134,33 C193.250002,33.4761929 193.780758,34.0606026 194.362416,34.7532468 C194.944074,35.4458909 195.53663,36.1854218 196.140101,36.9718615 C196.743571,37.7583012 197.343397,38.5735889 197.939597,39.4177489 C198.535797,40.261909 199.095635,41.0735892 199.619128,41.8528139 L199.619128,33 L203,33 L203,48 L200.142617,48 Z M212.075269,39.1688312 C212.677422,38.144295 213.250893,37.1197742 213.795699,36.0952381 C214.340505,35.0707019 214.842292,34.0389662 215.301075,33 L219,33 C218.182792,34.6161697 217.336922,36.1818106 216.462366,37.6969697 C215.587809,39.2121288 214.663087,40.7344801 213.688172,42.2640693 L213.688172,48 L210.333333,48 L210.333333,42.3073593 C209.358418,40.7777701 208.430112,39.2482039 207.548387,37.7186147 C206.666662,36.1890255 205.817208,34.6161697 205,33 L208.892473,33 C209.351257,34.0389662 209.845875,35.0707019 210.376344,36.0952381 C210.906813,37.1197742 211.473115,38.144295 212.075269,39.1688312 Z M222,46 C222,46.6521772 221.795701,47.148549 221.387097,47.4891304 C220.978493,47.8297118 220.516132,48 220,48 C219.483868,48 219.021507,47.8297118 218.612903,47.4891304 C218.204299,47.148549 218,46.6521772 218,46 C218,45.3478228 218.204299,44.851451 218.612903,44.5108696 C219.021507,44.1702882 219.483868,44 220,44 C220.516132,44 220.978493,44.1702882 221.387097,44.5108696 C221.795701,44.851451 222,45.3478228 222,46 Z" id="SPENNY."></path>
        </g>
    </g>
</svg>